<?xml version="1.0" encoding="utf-8"?>
<!-- Generator: Adobe Illustrator 24.2.3, SVG Export Plug-In . SVG Version: 6.00 Build 0)  -->
<svg version="1.1" id="Laag_1" xmlns="http://www.w3.org/2000/svg" xmlns:xlink="http://www.w3.org/1999/xlink" x="0px" y="0px"
	 viewBox="0 0 16.2 16.2" style="enable-background:new 0 0 16.2 16.2;" xml:space="preserve">
<style type="text/css">
	.st0{fill:#FFFFFF;}
</style>
<g>
	<path class="st0" d="M15.6,8.1l-1.5-1.6l0.5-2.2l-2.1-0.6l-0.6-2.1L9.7,2.1L8.1,0.6L6.5,2.1L4.3,1.6L3.7,3.7L1.6,4.3l0.5,2.2
		L0.6,8.1l1.5,1.6l-0.5,2.2l2.1,0.6l0.6,2.1l2.2-0.5l1.6,1.5l1.6-1.5l2.2,0.5l0.6-2.1l2.1-0.6l-0.5-2.2L15.6,8.1z M8.1,13.4
		c-3,0-5.4-2.4-5.4-5.4s2.4-5.4,5.4-5.4S13.5,5,13.5,8S11.1,13.4,8.1,13.4z"/>
	<g>
		<circle class="st0" cx="8.1" cy="8" r="4.2"/>
	</g>
</g>
</svg>
