<?xml version="1.0" encoding="utf-8"?>
<!-- Generator: Adobe Illustrator 24.2.3, SVG Export Plug-In . SVG Version: 6.00 Build 0)  -->
<svg version="1.1" id="Laag_1" xmlns="http://www.w3.org/2000/svg" xmlns:xlink="http://www.w3.org/1999/xlink" x="0px" y="0px"
	 viewBox="0 0 17 17" style="enable-background:new 0 0 17 17;" xml:space="preserve">
<style type="text/css">
	.st0{fill:#FFFFFF;}
</style>
<g>
	<line class="st0" x1="8.5" y1="1.3" x2="8.5" y2="15.7"/>
	<path class="st0" d="M8.5,16.6c-0.5,0-0.9-0.4-0.9-0.9V1.3c0-0.5,0.4-0.9,0.9-0.9s0.9,0.4,0.9,0.9v14.5C9.4,16.2,9,16.6,8.5,16.6z"
		/>
</g>
<g>
	<line class="st0" x1="15.7" y1="8.5" x2="1.3" y2="8.5"/>
	<path class="st0" d="M15.7,9.4H1.3C0.8,9.4,0.4,9,0.4,8.5s0.4-0.9,0.9-0.9h14.5c0.5,0,0.9,0.4,0.9,0.9S16.2,9.4,15.7,9.4z"/>
</g>
</svg>
