<?xml version="1.0" encoding="utf-8"?>
<!-- Generator: Adobe Illustrator 24.2.3, SVG Export Plug-In . SVG Version: 6.00 Build 0)  -->
<svg version="1.1" id="Laag_1" xmlns="http://www.w3.org/2000/svg" xmlns:xlink="http://www.w3.org/1999/xlink" x="0px" y="0px"
	 viewBox="0 0 16.2 16.2" style="enable-background:new 0 0 16.2 16.2;" xml:space="preserve">
<style type="text/css">
	.st0{fill:#FFFFFF;}
</style>
<g>
	<path class="st0" d="M14.4,0.5C5.5-0.3,2.4,3.7,1.7,7.1c-0.3,1.2,0.1,2.3,0.8,3.2c2.3-2.7,5.8-5.5,5.5-4.8
		c-0.2,0.6-3.3,3.6-4.5,5.7c0,0,0,0,0,0c0,0,0,0,0,0c0,0-1.4,2-1.3,3.4c0,0.5,0,1,0.5,1.1l0.5,0.1c0.6,0,1.1-0.1,1.1-0.8
		c0.2-1.6,0.7-3,0.8-3.1c0.5,0.1,1.1,0.3,1.7,0.3C9.7,12.2,15.7,7.7,14.4,0.5z"/>
</g>
</svg>
