<?xml version="1.0" encoding="utf-8"?>
<!-- Generator: Adobe Illustrator 24.2.3, SVG Export Plug-In . SVG Version: 6.00 Build 0)  -->
<svg version="1.1" id="Laag_1" xmlns="http://www.w3.org/2000/svg" xmlns:xlink="http://www.w3.org/1999/xlink" x="0px" y="0px"
	 viewBox="0 0 16.2 16.2" style="enable-background:new 0 0 16.2 16.2;" xml:space="preserve">
<style type="text/css">
	.st0{fill:#FFFFFF;}
	.st1{fill:#FFE100;}
</style>
<g>
	<path class="st0" d="M14.2,9.2c0-1.7-1.4-3-3-3c-0.4,0-0.8,0.1-1.1,0.2C9.4,4.5,7.7,3.1,5.7,3.1c-2.5,0-4.5,2-4.5,4.5
		c0,2.4,1.9,4.4,4.3,4.5c0,0,0.1,0,0.1,0h5.6c0,0,0,0,0,0C12.8,12.2,14.2,10.8,14.2,9.2z"/>
	<path class="st1" d="M10.3,5.7c0.3-0.1,0.5-0.1,0.8-0.1c1,0,1.9,0.4,2.6,1.1C14,6.2,14.2,5.6,14.2,5c0-1.8-1.5-3.3-3.3-3.3
		c-1.2,0-2.2,0.6-2.8,1.6C9.1,3.8,9.8,4.6,10.3,5.7z"/>
</g>
</svg>
