<?xml version="1.0" encoding="utf-8"?>
<!-- Generator: Adobe Illustrator 24.2.3, SVG Export Plug-In . SVG Version: 6.00 Build 0)  -->
<svg version="1.1" id="Laag_1" xmlns="http://www.w3.org/2000/svg" xmlns:xlink="http://www.w3.org/1999/xlink" x="0px" y="0px"
	 viewBox="0 0 13 10.5" enable-background="new 0 0 13 10.5" xml:space="preserve">
<g>
	<path fill="#FFFFFF" d="M13,7.453c0-1.683-1.364-3.047-3.047-3.047c-0.395,0-0.77,0.081-1.117,0.218
		C8.261,2.783,6.562,1.438,4.531,1.438C2.029,1.438,0,3.466,0,5.969c0,2.418,1.898,4.375,4.283,4.506
		C4.326,10.479,4.363,10.5,4.406,10.5h5.563c0.005,0,0.01-0.003,0.015-0.003C11.652,10.48,13,9.125,13,7.453z"/>
	<path fill="#FFE100" d="M9.141,4.004c0.268-0.065,0.54-0.098,0.812-0.098c1.004,0,1.907,0.423,2.553,1.096
		C12.816,4.504,13,3.92,13,3.289C13,1.473,11.527,0,9.711,0c-1.18,0-2.21,0.624-2.79,1.558C7.896,2.091,8.69,2.936,9.141,4.004z"/>
</g>
</svg>
