<?xml version="1.0" encoding="utf-8"?>
<!-- Generator: Adobe Illustrator 24.2.3, SVG Export Plug-In . SVG Version: 6.00 Build 0)  -->
<svg version="1.1" id="Laag_1" xmlns="http://www.w3.org/2000/svg" xmlns:xlink="http://www.w3.org/1999/xlink" x="0px" y="0px"
	 viewBox="0 0 13 10.5" style="enable-background:new 0 0 13 10.5;" xml:space="preserve">
<style type="text/css">
	.st0{fill:#D1DDED;}
	.st1{fill:#FFE100;}
</style>
<g>
	<path class="st0" d="M13,7.5c0-1.7-1.4-3-3-3c-0.4,0-0.8,0.1-1.1,0.2C8.3,2.8,6.6,1.4,4.5,1.4C2,1.4,0,3.5,0,6
		c0,2.4,1.9,4.4,4.3,4.5c0,0,0.1,0,0.1,0H10c0,0,0,0,0,0C11.7,10.5,13,9.1,13,7.5z"/>
	<path class="st1" d="M9.1,4C9.4,3.9,9.7,3.9,10,3.9c1,0,1.9,0.4,2.6,1.1C12.8,4.5,13,3.9,13,3.3C13,1.5,11.5,0,9.7,0
		C8.5,0,7.5,0.6,6.9,1.6C7.9,2.1,8.7,2.9,9.1,4z"/>
</g>
</svg>
