<?xml version="1.0" encoding="utf-8"?>
<!-- Generator: Adobe Illustrator 24.2.3, SVG Export Plug-In . SVG Version: 6.00 Build 0)  -->
<svg version="1.1" id="Laag_1" xmlns="http://www.w3.org/2000/svg" xmlns:xlink="http://www.w3.org/1999/xlink" x="0px" y="0px"
	 viewBox="0 0 14.6 16.2" style="enable-background:new 0 0 14.6 16.2;" xml:space="preserve">
<style type="text/css">
	.st0{fill:#FFFFFF;}
	.st1{fill:#FFE100;}
</style>
<g>
	<path class="st0" d="M13.9,9.1c0-1.7-1.4-3.1-3.1-3.1C10.4,6,10,6.1,9.6,6.2C9.1,4.4,7.3,3,5.3,3C2.7,3,0.7,5.1,0.7,7.6
		c0,2.5,1.9,4.4,4.3,4.6c0,0,0.1,0,0.1,0h5.6c0,0,0,0,0,0C12.5,12.2,13.9,10.8,13.9,9.1z"/>
	<g>
		<path class="st1" d="M9.9,5.6c0.2-0.1,0.5-0.1,0.7-0.1c0.9,0,1.8,0.3,2.4,0.9c0.8-0.5,1.4-1.2,1.6-2.1c0,0,0-0.1,0-0.1
			c0,0-0.1,0-0.1,0c-0.2,0.1-0.4,0.1-0.6,0.1c-1.8,0.2-3.5-1.1-3.7-2.9c0-0.4,0-0.8,0.1-1.2c0,0,0-0.1,0-0.1c0,0-0.1,0-0.1,0
			C8.7,0.5,7.7,1.7,7.6,3.2C8.6,3.7,9.4,4.6,9.9,5.6z"/>
	</g>
</g>
</svg>
