<?xml version="1.0" encoding="utf-8"?>
<!-- Generator: Adobe Illustrator 24.2.3, SVG Export Plug-In . SVG Version: 6.00 Build 0)  -->
<svg version="1.1" id="Laag_1" xmlns="http://www.w3.org/2000/svg" xmlns:xlink="http://www.w3.org/1999/xlink" x="0px" y="0px"
	 viewBox="0 0 453.7 29.5" style="enable-background:new 0 0 453.7 29.5;" xml:space="preserve">
<style type="text/css">
	.st0{fill:none;stroke:#E2E1E0;stroke-width:2;stroke-linecap:round;stroke-miterlimit:10;}
	.st1{font-family:'MyriadPro-Regular';}
	.st2{font-size:18px;}
	.st3{fill:#FFFFFF;}
	.st4{fill:#C8C6C6;}
</style>
<g id="temps-group">
	<polyline id="path_1_" class="st0" points="12,25.7 97.9,25.7 183.8,25.7 269.7,25.7 355.6,25.7 441.5,25.7 	"/>
	<g id="group_1">
		<text id="group-1-temp" transform="matrix(1 0 0 1 2.288818e-05 15.0657)" class="st1 st2">40°</text>
		<g id="group-1-dot">
			<path class="st3" d="M12,28.5c-1.5,0-2.8-1.2-2.8-2.8s1.2-2.8,2.8-2.8s2.8,1.2,2.8,2.8S13.5,28.5,12,28.5z"/>
			<g>
				<path class="st4" d="M12,23.9c1,0,1.8,0.8,1.8,1.8s-0.8,1.8-1.8,1.8c-1,0-1.8-0.8-1.8-1.8S11,23.9,12,23.9 M12,21.9
					c-2.1,0-3.8,1.7-3.8,3.8c0,2.1,1.7,3.8,3.8,3.8s3.8-1.7,3.8-3.8C15.7,23.6,14,21.9,12,21.9L12,21.9z"/>
			</g>
		</g>
	</g>
	<g id="group_2">
		<text id="group-2-temp" transform="matrix(1 0 0 1 85.9067 15.0657)" class="st1 st2">40°</text>
		<g id="group-2-dot">
			<path class="st3" d="M97.9,28.5c-1.5,0-2.8-1.2-2.8-2.8s1.2-2.8,2.8-2.8s2.8,1.2,2.8,2.8S99.4,28.5,97.9,28.5z"/>
			<g>
				<path class="st4" d="M97.9,23.9c1,0,1.8,0.8,1.8,1.8s-0.8,1.8-1.8,1.8s-1.8-0.8-1.8-1.8S96.9,23.9,97.9,23.9 M97.9,21.9
					c-2.1,0-3.8,1.7-3.8,3.8c0,2.1,1.7,3.8,3.8,3.8s3.8-1.7,3.8-3.8C101.6,23.6,99.9,21.9,97.9,21.9L97.9,21.9z"/>
			</g>
		</g>
	</g>
	<g id="group_3">
		<text id="group-3-temp" transform="matrix(1 0 0 1 171.8134 15.0657)" class="st1 st2">40°</text>
		<g id="group-3-dot">
			<path class="st3" d="M183.8,28.5c-1.5,0-2.8-1.2-2.8-2.8s1.2-2.8,2.8-2.8s2.8,1.2,2.8,2.8S185.3,28.5,183.8,28.5z"/>
			<g>
				<path class="st4" d="M183.8,23.9c1,0,1.8,0.8,1.8,1.8s-0.8,1.8-1.8,1.8c-1,0-1.8-0.8-1.8-1.8S182.8,23.9,183.8,23.9 M183.8,21.9
					c-2.1,0-3.8,1.7-3.8,3.8c0,2.1,1.7,3.8,3.8,3.8s3.8-1.7,3.8-3.8C187.5,23.6,185.9,21.9,183.8,21.9L183.8,21.9z"/>
			</g>
		</g>
	</g>
	<g id="group_4">
		<text id="group-4-temp" transform="matrix(1 0 0 1 257.7202 15.0657)" class="st1 st2">40°</text>
		<g id="group-4-dot">
			<path class="st3" d="M269.7,28.5c-1.5,0-2.8-1.2-2.8-2.8s1.2-2.8,2.8-2.8s2.8,1.2,2.8,2.8S271.2,28.5,269.7,28.5z"/>
			<g>
				<path class="st4" d="M269.7,23.9c1,0,1.8,0.8,1.8,1.8s-0.8,1.8-1.8,1.8c-1,0-1.8-0.8-1.8-1.8S268.7,23.9,269.7,23.9 M269.7,21.9
					c-2.1,0-3.8,1.7-3.8,3.8c0,2.1,1.7,3.8,3.8,3.8c2.1,0,3.8-1.7,3.8-3.8C273.4,23.6,271.8,21.9,269.7,21.9L269.7,21.9z"/>
			</g>
		</g>
	</g>
	<g id="group_5">
		<text id="group-5-temp" transform="matrix(1 0 0 1 343.627 15.0657)" class="st1 st2">40°</text>
		<g id="group-5-dot">
			<path class="st3" d="M355.6,28.5c-1.5,0-2.8-1.2-2.8-2.8s1.2-2.8,2.8-2.8s2.8,1.2,2.8,2.8S357.1,28.5,355.6,28.5z"/>
			<g>
				<path class="st4" d="M355.6,23.9c1,0,1.8,0.8,1.8,1.8s-0.8,1.8-1.8,1.8s-1.8-0.8-1.8-1.8S354.6,23.9,355.6,23.9 M355.6,21.9
					c-2.1,0-3.8,1.7-3.8,3.8c0,2.1,1.7,3.8,3.8,3.8c2.1,0,3.8-1.7,3.8-3.8C359.4,23.6,357.7,21.9,355.6,21.9L355.6,21.9z"/>
			</g>
		</g>
	</g>
	<g id="group_6">
		<text id="group-6-temp" transform="matrix(1 0 0 1 429.5339 15.0657)" class="st1 st2">40°</text>
		<g id="group-6-dot">
			<path class="st3" d="M441.5,28.5c-1.5,0-2.8-1.2-2.8-2.8s1.2-2.8,2.8-2.8s2.8,1.2,2.8,2.8S443,28.5,441.5,28.5z"/>
			<g>
				<path class="st4" d="M441.5,23.9c1,0,1.8,0.8,1.8,1.8s-0.8,1.8-1.8,1.8s-1.8-0.8-1.8-1.8S440.5,23.9,441.5,23.9 M441.5,21.9
					c-2.1,0-3.8,1.7-3.8,3.8c0,2.1,1.7,3.8,3.8,3.8c2.1,0,3.8-1.7,3.8-3.8C445.3,23.6,443.6,21.9,441.5,21.9L441.5,21.9z"/>
			</g>
		</g>
	</g>
</g>
</svg>
