<?xml version="1.0" encoding="utf-8"?>
<!-- Generator: Adobe Illustrator 24.2.3, SVG Export Plug-In . SVG Version: 6.00 Build 0)  -->
<svg version="1.1" id="Laag_1" xmlns="http://www.w3.org/2000/svg" xmlns:xlink="http://www.w3.org/1999/xlink" x="0px" y="0px"
	 viewBox="0 0 16.2 16.2" style="enable-background:new 0 0 16.2 16.2;" xml:space="preserve">
<style type="text/css">
	.st0{fill:#FFE100;}
</style>
<path class="st0" d="M13.1,10c0-0.1-0.1-0.1-0.2-0.1C12.6,10,12.3,10,12,10c-2.7,0-4.9-2.2-4.9-4.9c0-0.6,0.1-1.2,0.3-1.7
	c0-0.1,0-0.1,0-0.2c0-0.1-0.1-0.1-0.2-0.1C4.8,3.6,3,5.8,3,8.3c0,2.9,2.4,5.3,5.3,5.3c2.2,0,4.1-1.3,4.9-3.4
	C13.2,10.1,13.2,10,13.1,10z"/>
</svg>
