<?xml version="1.0" encoding="utf-8"?>
<!-- Generator: Adobe Illustrator 24.2.3, SVG Export Plug-In . SVG Version: 6.00 Build 0)  -->
<svg version="1.1" id="Laag_1" xmlns="http://www.w3.org/2000/svg" xmlns:xlink="http://www.w3.org/1999/xlink" x="0px" y="0px"
	 viewBox="0 0 16.2 16.2" style="enable-background:new 0 0 16.2 16.2;" xml:space="preserve">
<style type="text/css">
	.st0{fill:#FFFFFF;}
	.st1{fill:#FFE100;}
</style>
<g>
	<g>
		<path class="st0" d="M11.6,5.5c-0.1,0-0.1,0-0.2,0c-0.5-1.6-2-2.7-3.8-2.7C5.8,2.8,4.3,4,3.7,5.6C2.1,5.8,0.8,7.2,0.8,8.9
			c0,1.9,1.5,3.4,3.4,3.4c0.1,0,0.1,0,0.2,0c0,0,0,0,0-0.1l2.8-4C7.4,7.8,7.7,7.7,8,7.7c0.1,0,0.2,0,0.3,0C8.8,7.9,9,8.2,9,8.7v1.8
			h1c0.4,0,0.7,0.2,0.9,0.5c0.2,0.3,0.2,0.7,0,1l0,0.1c0.2,0,0.5,0.1,0.7,0.1c1.9,0,3.4-1.5,3.4-3.4S13.4,5.5,11.6,5.5z"/>
	</g>
	<path class="st1" d="M10.4,11.4c-0.1-0.1-0.2-0.2-0.3-0.2H8.4V8.7c0-0.1-0.1-0.3-0.2-0.3c-0.1,0-0.3,0-0.4,0.1l-2.8,4
		c-0.1,0.1-0.1,0.2,0,0.3C5,13,5.1,13.1,5.3,13.1h1.7v2.7c0,0.1,0.1,0.3,0.2,0.3c0,0,0.1,0,0.1,0c0.1,0,0.2-0.1,0.3-0.2l2.8-4.3
		C10.4,11.6,10.4,11.5,10.4,11.4z"/>
</g>
</svg>
