<?xml version="1.0" encoding="utf-8"?>
<!-- Generator: Adobe Illustrator 24.2.3, SVG Export Plug-In . SVG Version: 6.00 Build 0)  -->
<svg version="1.1" id="Laag_1" xmlns="http://www.w3.org/2000/svg" xmlns:xlink="http://www.w3.org/1999/xlink" x="0px" y="0px"
	 viewBox="0 0 16.2 16.2" style="enable-background:new 0 0 16.2 16.2;" xml:space="preserve">
<style type="text/css">
	.st0{fill:#D1DDED;}
</style>
<g>
	<path class="st0" d="M11.6,5.5c-0.1,0-0.1,0-0.2,0c-0.5-1.6-2-2.7-3.8-2.7S4.3,4,3.7,5.6C2.1,5.8,0.8,7.2,0.8,8.9
		c0,1.9,1.5,3.4,3.4,3.4h7.4c1.9,0,3.4-1.5,3.4-3.4S13.4,5.5,11.6,5.5z"/>
	<g>
		<line class="st0" x1="5.9" y1="13.7" x2="5" y2="15.2"/>
		<path class="st0" d="M5,15.8c-0.1,0-0.2,0-0.3-0.1c-0.3-0.2-0.4-0.5-0.2-0.8l0.9-1.5c0.2-0.3,0.5-0.4,0.8-0.2s0.4,0.5,0.2,0.8
			l-0.9,1.5C5.5,15.7,5.2,15.8,5,15.8z"/>
	</g>
	<g>
		<line class="st0" x1="9.9" y1="13.7" x2="9" y2="15.2"/>
		<path class="st0" d="M9,15.8c-0.1,0-0.2,0-0.3-0.1c-0.3-0.2-0.4-0.5-0.2-0.8l0.9-1.5c0.2-0.3,0.5-0.4,0.8-0.2s0.4,0.5,0.2,0.8
			l-0.9,1.5C9.4,15.7,9.2,15.8,9,15.8z"/>
	</g>
</g>
</svg>
